<?xml version="1.0" encoding="UTF-8" standalone="no"?>
<!-- Created with Inkscape (http://www.inkscape.org/) -->

<svg
   width="27.719837mm"
   height="14.247667mm"
   viewBox="0 0 27.719837 14.247667"
   version="1.1"
   id="svg1"
   xml:space="preserve"
   xmlns:xlink="http://www.w3.org/1999/xlink"
   xmlns="http://www.w3.org/2000/svg"
   xmlns:svg="http://www.w3.org/2000/svg"><defs
     id="defs1"><radialGradient
       id="a"
       cx="0"
       cy="0"
       r="1"
       gradientTransform="matrix(38.171187,-34.311631,54.292192,60.399269,-2.9605641,61.5118)"
       gradientUnits="userSpaceOnUse"><stop
         stop-color="#844A06"
         id="stop5" /><stop
         stop-color="#844A06"
         id="stop6" /><stop
         offset="1"
         stop-color="#FFAF52"
         id="stop7" /></radialGradient><linearGradient
       id="b"
       x1="51.844002"
       x2="111.147"
       y1="55.036999"
       y2="-12.61"
       gradientUnits="userSpaceOnUse"><stop
         stop-color="#fff"
         stop-opacity="0"
         id="stop8" /><stop
         offset="1"
         stop-color="#fff"
         id="stop9" /></linearGradient><pattern
       id="d"
       width=".767"
       height=".94"
       patternContentUnits="objectBoundingBox"><use
         xlink:href="#image0_41_2756"
         transform="scale(.0009 .00182)"
         id="use9" /></pattern></defs><g
     id="layer1"
     transform="translate(-90.593471,-140.74693)"><g
       style="fill:none"
       id="g1"
       transform="matrix(0.26458333,0,0,0.26458333,90.558513,140.67363)"><path
         fill="#ffaf52"
         d="M 87.437,11.883 C 78.004,4.475 64.339,-0.584 45.557,1.925 L 44.681,2.047 C 26.43,4.689 15.318,12.748 8.891,21.887 2.383,31.138 0.728,41.415 1.212,48.104 l 0.006,0.06 c 0.106,0.792 0.432,1.969 1.099,2.978 0.679,1.026 1.794,1.984 3.44,1.984 0.375,0 1.684,-0.138 3.62,-0.361 1.98,-0.23 4.712,-0.56 8.014,-0.97 6.604,-0.82 15.502,-1.954 25.277,-3.214 19.553,-2.52 42.624,-5.545 57.906,-7.561 a 1,1 0 0 0 0.727,-0.477 l 2.456,-4.094 c 0.141,-0.235 0.179,-0.519 0.106,-0.783 -1.871,-6.717 -7.025,-16.398 -16.427,-23.782 z"
         id="path1" /><path
         fill="url(#a)"
         fill-opacity="0.8"
         d="M 87.437,11.883 C 78.004,4.475 64.339,-0.584 45.557,1.925 L 44.681,2.047 C 26.43,4.689 15.318,12.748 8.891,21.887 2.383,31.138 0.728,41.415 1.212,48.104 l 0.006,0.06 c 0.106,0.792 0.432,1.969 1.099,2.978 0.679,1.026 1.794,1.984 3.44,1.984 0.375,0 1.684,-0.138 3.62,-0.361 1.98,-0.23 4.712,-0.56 8.014,-0.97 6.604,-0.82 15.502,-1.954 25.277,-3.214 19.553,-2.52 42.624,-5.545 57.906,-7.561 a 1,1 0 0 0 0.727,-0.477 l 2.456,-4.094 c 0.141,-0.235 0.179,-0.519 0.106,-0.783 -1.871,-6.717 -7.025,-16.398 -16.427,-23.782 z"
         id="path2"
         style="fill:url(#a)" /><path
         fill="url(#b)"
         fill-opacity="0.4"
         d="M 87.437,11.883 C 78.004,4.475 64.339,-0.584 45.557,1.925 L 44.681,2.047 C 26.43,4.689 15.318,12.748 8.891,21.887 2.383,31.138 0.728,41.415 1.212,48.104 l 0.006,0.06 c 0.106,0.792 0.432,1.969 1.099,2.978 0.679,1.026 1.794,1.984 3.44,1.984 0.375,0 1.684,-0.138 3.62,-0.361 1.98,-0.23 4.712,-0.56 8.014,-0.97 6.604,-0.82 15.502,-1.954 25.277,-3.214 19.553,-2.52 42.624,-5.545 57.906,-7.561 a 1,1 0 0 0 0.727,-0.477 l 2.456,-4.094 c 0.141,-0.235 0.179,-0.519 0.106,-0.783 -1.871,-6.717 -7.025,-16.398 -16.427,-23.782 z"
         id="path3"
         style="fill:url(#b)" /><path
         stroke="#000000"
         stroke-linejoin="round"
         stroke-width="2.001"
         d="M 87.437,11.883 C 78.004,4.475 64.339,-0.584 45.557,1.925 L 44.681,2.047 C 26.43,4.689 15.318,12.748 8.891,21.887 2.383,31.138 0.728,41.415 1.212,48.104 l 0.006,0.06 c 0.106,0.792 0.432,1.969 1.099,2.978 0.679,1.026 1.794,1.984 3.44,1.984 0.375,0 1.684,-0.138 3.62,-0.361 1.98,-0.23 4.712,-0.56 8.014,-0.97 6.604,-0.82 15.502,-1.954 25.277,-3.214 19.553,-2.52 42.624,-5.545 57.906,-7.561 a 1,1 0 0 0 0.727,-0.477 l 2.456,-4.094 c 0.141,-0.235 0.179,-0.519 0.106,-0.783 -1.871,-6.717 -7.025,-16.398 -16.427,-23.782 z"
         id="path4" /><g
         mask="url(#c)"
         id="g5"><path
           fill="url(#d)"
           d="m 102.9,35.934 -2.456,4.093 C 69.883,44.059 8.16,52.124 5.759,52.124 3.357,52.124 2.393,49.395 2.211,48.031 1.271,35.055 8.651,7.865 45.688,2.917 82.726,-2.031 99.262,22.867 102.9,35.934 Z"
           style="mix-blend-mode:multiply"
           id="path5" /></g></g></g></svg>
